<svg id="Layer_2" data-name="Layer 2" xmlns="http://www.w3.org/2000/svg" viewBox="0 0 472.76 357.07"><defs><style>.cls-1{fill:#ffd75f;}.cls-2{fill:#593a25;}.cls-3{fill:#ffb60f;}.cls-4{fill:#3d330c;}.cls-5{fill:#66510e;}.cls-6{fill:#fff;}.cls-7{fill:#fee9a1;}.cls-8{fill:#fb9201;}.cls-9{fill:#fa0;}</style></defs><title>Car_Rental_Logo</title><circle class="cls-1" cx="294.22" cy="178.54" r="178.54"/><path class="cls-2" d="M209,320c-26.85-35.41-65.82-32.56-65.82-32.56-61.07,1.19-77.7,54.18-77.7,54.18C53.33,374.92,69,412.23,69,412.23c14.73,48.23,45.39,68.67,45.39,68.67,28,20.44,51.32,3.33,51.32,3.33,41.35-20.68,57.75-92,57.75-92C234.4,350.21,209,320,209,320Zm-65.45,72.71a26,26,0,1,1,26-26A26,26,0,0,1,143.52,392.74Z" transform="translate(-60.85 -243.35)"/><path class="cls-3" d="M206.59,338.56C182.12,294.84,142,300.07,142,300.07c-26.61-.71-46.1,17.82-46.1,17.82C63.54,348.54,74.48,386.8,74.48,386.8,85.17,440,114.4,464.5,114.4,464.5,139.35,489,160,473.3,160,473.3c35.41-20.2,47.76-69.39,47.76-69.39C220.14,362.56,206.59,338.56,206.59,338.56Zm-63.07,54.18a26,26,0,1,1,26-26A26,26,0,0,1,143.52,392.74Z" transform="translate(-60.85 -243.35)"/><path class="cls-2" d="M143.09,335.71a31.07,31.07,0,1,0,31.07,31.07A31.07,31.07,0,0,0,143.09,335.71Zm.43,57a26,26,0,1,1,26-26A26,26,0,0,1,143.52,392.74Z" transform="translate(-60.85 -243.35)"/><circle class="cls-2" cx="81.99" cy="283.81" r="18.55"/><ellipse class="cls-2" cx="173.04" cy="283.81" rx="46.96" ry="12.83"/><ellipse class="cls-2" cx="282.64" cy="283.81" rx="46.96" ry="12.83"/><ellipse class="cls-2" cx="393.85" cy="283.81" rx="46.96" ry="12.83"/><path class="cls-4" d="M457.64,475.49s5.23-78.23-60.95-85.6H347.86s-7.25,2.26-8.32,7.72c0,0-4.39,10-10.69,24.6L273.13,422a25.8,25.8,0,0,0-7.31,7v18.89l106.87,10.69,51.47,6.18Z" transform="translate(-60.85 -243.35)"/><path class="cls-5" d="M256.67,466.44s.78-29.38,15.63-31.16c0,0,134.61-1.1,142.57,11.8L381,476.74l-21,2.62Z" transform="translate(-60.85 -243.35)"/><path class="cls-6" d="M264.63,455s21.21-18.18,54,2.67c0,0,25.67,17.47,44.56,18.18l17.82.89s-2-16.57,15.33-25.13c0,0,14.79-7.48,27.62-3.21,0,0,15.15,2.14,33.68,27.09,0,0,3.92,12.15-12.83,11.69H257.15a10.79,10.79,0,0,1-5.29-7.14S252.57,469.14,264.63,455Z" transform="translate(-60.85 -243.35)"/><circle class="cls-4" cx="226.23" cy="236.69" r="18.98"/><circle class="cls-7" cx="226.37" cy="236.75" r="7.08"/><circle class="cls-4" cx="352.17" cy="236.75" r="18.98"/><circle class="cls-7" cx="352.24" cy="236.75" r="7.08"/><path class="cls-4" d="M256.14,429v17.7h9.68s11.76-8.91,0-17.7Z" transform="translate(-60.85 -243.35)"/><rect class="cls-5" x="191.13" y="185.63" width="4.16" height="17.7"/><path class="cls-8" d="M407,402.87v19.05h20S437.37,417.31,407,402.87Z" transform="translate(-60.85 -243.35)"/><path class="cls-9" d="M394,399v23H344.12s-1.9-9.69,6-23Z" transform="translate(-60.85 -243.35)"/><polygon class="cls-8" points="333.13 155.6 333.13 178.56 292.36 178.56 315.53 155.6 333.13 155.6"/></svg>